# xmcd
#
# Track frame offsets:
#	150
#	72010
#	91705
#	110828
#	148093
#	189233
#
# Disc length: 2884 seconds
#
# Revision: 0
# Processed by: cddbd v1.5.2PL0 Copyright (c) Steve Scherf et al.
# Submitted via: audiograbber 1.83.01
#
DISCID=4c0b4206
DTITLE=Grateful Dead - 94-07-13 Franklin County Field, Highgate VT
DYEAR=1900
DGENRE=
TTITLE0=Space
TTITLE1=I Want To Tell You
TTITLE2=I Need A Miracle
TTITLE3=Standing On The Moon
TTITLE4=Sugar Magnolia
TTITLE5=US Blues
EXTD=
EXTT0=
EXTT1=
EXTT2=
EXTT3=
EXTT4=
EXTT5=
PLAYORDER=
